<mxfile host="app.diagrams.net" modified="2022-12-08T06:47:15.333Z" agent="5.0 (Windows NT 10.0; Win64; x64) AppleWebKit/537.36 (KHTML, like Gecko) Chrome/107.0.0.0 Safari/537.36 Edg/107.0.1418.62" etag="LDRDtTEbK9DYzcUxSXYO" version="20.3.7" type="github">
  <diagram id="C5RBs43oDa-KdzZeNtuy" name="Page-1">
    <mxGraphModel dx="1838" dy="1150" grid="1" gridSize="10" guides="1" tooltips="1" connect="1" arrows="1" fold="1" page="1" pageScale="1" pageWidth="827" pageHeight="1169" math="0" shadow="0">
      <root>
        <mxCell id="WIyWlLk6GJQsqaUBKTNV-0" />
        <mxCell id="WIyWlLk6GJQsqaUBKTNV-1" parent="WIyWlLk6GJQsqaUBKTNV-0" />
        <mxCell id="WIyWlLk6GJQsqaUBKTNV-2" value="" style="rounded=0;html=1;jettySize=auto;orthogonalLoop=1;fontSize=11;endArrow=block;endFill=0;endSize=8;strokeWidth=1;shadow=0;labelBackgroundColor=none;edgeStyle=orthogonalEdgeStyle;" parent="WIyWlLk6GJQsqaUBKTNV-1" source="WIyWlLk6GJQsqaUBKTNV-3" edge="1">
          <mxGeometry relative="1" as="geometry">
            <mxPoint x="115" y="130" as="targetPoint" />
          </mxGeometry>
        </mxCell>
        <mxCell id="WIyWlLk6GJQsqaUBKTNV-3" value="START" style="rounded=1;whiteSpace=wrap;html=1;fontSize=12;glass=0;strokeWidth=1;shadow=0;" parent="WIyWlLk6GJQsqaUBKTNV-1" vertex="1">
          <mxGeometry x="55" y="40" width="120" height="40" as="geometry" />
        </mxCell>
        <mxCell id="TdhYN8Uusc7XYz8LDAEQ-2" value="" style="edgeStyle=orthogonalEdgeStyle;rounded=0;orthogonalLoop=1;jettySize=auto;html=1;" edge="1" parent="WIyWlLk6GJQsqaUBKTNV-1" source="TdhYN8Uusc7XYz8LDAEQ-0" target="TdhYN8Uusc7XYz8LDAEQ-1">
          <mxGeometry relative="1" as="geometry" />
        </mxCell>
        <mxCell id="TdhYN8Uusc7XYz8LDAEQ-0" value="PRINT(1.mnghitung&lt;br&gt;2.mengolah data&lt;br&gt;3.exit)" style="shape=parallelogram;perimeter=parallelogramPerimeter;whiteSpace=wrap;html=1;fixedSize=1;" vertex="1" parent="WIyWlLk6GJQsqaUBKTNV-1">
          <mxGeometry x="40" y="130" width="150" height="80" as="geometry" />
        </mxCell>
        <mxCell id="TdhYN8Uusc7XYz8LDAEQ-4" value="" style="edgeStyle=orthogonalEdgeStyle;rounded=0;orthogonalLoop=1;jettySize=auto;html=1;" edge="1" parent="WIyWlLk6GJQsqaUBKTNV-1" source="TdhYN8Uusc7XYz8LDAEQ-1" target="TdhYN8Uusc7XYz8LDAEQ-3">
          <mxGeometry relative="1" as="geometry" />
        </mxCell>
        <mxCell id="TdhYN8Uusc7XYz8LDAEQ-1" value="masukan pilihan" style="shape=parallelogram;perimeter=parallelogramPerimeter;whiteSpace=wrap;html=1;fixedSize=1;" vertex="1" parent="WIyWlLk6GJQsqaUBKTNV-1">
          <mxGeometry x="55" y="250" width="120" height="60" as="geometry" />
        </mxCell>
        <mxCell id="TdhYN8Uusc7XYz8LDAEQ-6" value="" style="edgeStyle=orthogonalEdgeStyle;rounded=0;orthogonalLoop=1;jettySize=auto;html=1;" edge="1" parent="WIyWlLk6GJQsqaUBKTNV-1" source="TdhYN8Uusc7XYz8LDAEQ-3" target="TdhYN8Uusc7XYz8LDAEQ-5">
          <mxGeometry relative="1" as="geometry" />
        </mxCell>
        <mxCell id="TdhYN8Uusc7XYz8LDAEQ-25" value="" style="edgeStyle=orthogonalEdgeStyle;rounded=0;orthogonalLoop=1;jettySize=auto;html=1;" edge="1" parent="WIyWlLk6GJQsqaUBKTNV-1" source="TdhYN8Uusc7XYz8LDAEQ-3" target="TdhYN8Uusc7XYz8LDAEQ-24">
          <mxGeometry relative="1" as="geometry" />
        </mxCell>
        <mxCell id="TdhYN8Uusc7XYz8LDAEQ-3" value="=1" style="rhombus;whiteSpace=wrap;html=1;" vertex="1" parent="WIyWlLk6GJQsqaUBKTNV-1">
          <mxGeometry x="75" y="340" width="80" height="80" as="geometry" />
        </mxCell>
        <mxCell id="TdhYN8Uusc7XYz8LDAEQ-8" value="" style="edgeStyle=orthogonalEdgeStyle;rounded=0;orthogonalLoop=1;jettySize=auto;html=1;" edge="1" parent="WIyWlLk6GJQsqaUBKTNV-1" source="TdhYN8Uusc7XYz8LDAEQ-5" target="TdhYN8Uusc7XYz8LDAEQ-7">
          <mxGeometry relative="1" as="geometry" />
        </mxCell>
        <mxCell id="TdhYN8Uusc7XYz8LDAEQ-5" value="PRINT(daftar harga)" style="shape=parallelogram;perimeter=parallelogramPerimeter;whiteSpace=wrap;html=1;fixedSize=1;" vertex="1" parent="WIyWlLk6GJQsqaUBKTNV-1">
          <mxGeometry x="190" y="350" width="135" height="60" as="geometry" />
        </mxCell>
        <mxCell id="TdhYN8Uusc7XYz8LDAEQ-10" value="" style="edgeStyle=orthogonalEdgeStyle;rounded=0;orthogonalLoop=1;jettySize=auto;html=1;" edge="1" parent="WIyWlLk6GJQsqaUBKTNV-1" source="TdhYN8Uusc7XYz8LDAEQ-7" target="TdhYN8Uusc7XYz8LDAEQ-9">
          <mxGeometry relative="1" as="geometry" />
        </mxCell>
        <mxCell id="TdhYN8Uusc7XYz8LDAEQ-7" value="masukan&amp;nbsp;&lt;br&gt;barang yang ingin di jumlah" style="shape=parallelogram;perimeter=parallelogramPerimeter;whiteSpace=wrap;html=1;fixedSize=1;" vertex="1" parent="WIyWlLk6GJQsqaUBKTNV-1">
          <mxGeometry x="345" y="350" width="140" height="60" as="geometry" />
        </mxCell>
        <mxCell id="TdhYN8Uusc7XYz8LDAEQ-12" value="" style="edgeStyle=orthogonalEdgeStyle;rounded=0;orthogonalLoop=1;jettySize=auto;html=1;" edge="1" parent="WIyWlLk6GJQsqaUBKTNV-1" source="TdhYN8Uusc7XYz8LDAEQ-9" target="TdhYN8Uusc7XYz8LDAEQ-11">
          <mxGeometry relative="1" as="geometry" />
        </mxCell>
        <mxCell id="TdhYN8Uusc7XYz8LDAEQ-9" value="total harga= harga1 + harga2" style="rounded=0;whiteSpace=wrap;html=1;" vertex="1" parent="WIyWlLk6GJQsqaUBKTNV-1">
          <mxGeometry x="515" y="350" width="120" height="60" as="geometry" />
        </mxCell>
        <mxCell id="TdhYN8Uusc7XYz8LDAEQ-16" value="" style="edgeStyle=orthogonalEdgeStyle;rounded=0;orthogonalLoop=1;jettySize=auto;html=1;" edge="1" parent="WIyWlLk6GJQsqaUBKTNV-1" source="TdhYN8Uusc7XYz8LDAEQ-11" target="TdhYN8Uusc7XYz8LDAEQ-15">
          <mxGeometry relative="1" as="geometry" />
        </mxCell>
        <mxCell id="TdhYN8Uusc7XYz8LDAEQ-11" value="print(total harga)" style="shape=parallelogram;perimeter=parallelogramPerimeter;whiteSpace=wrap;html=1;fixedSize=1;" vertex="1" parent="WIyWlLk6GJQsqaUBKTNV-1">
          <mxGeometry x="515" y="450" width="120" height="60" as="geometry" />
        </mxCell>
        <mxCell id="TdhYN8Uusc7XYz8LDAEQ-18" value="" style="edgeStyle=orthogonalEdgeStyle;rounded=0;orthogonalLoop=1;jettySize=auto;html=1;" edge="1" parent="WIyWlLk6GJQsqaUBKTNV-1" source="TdhYN8Uusc7XYz8LDAEQ-15" target="TdhYN8Uusc7XYz8LDAEQ-17">
          <mxGeometry relative="1" as="geometry" />
        </mxCell>
        <mxCell id="TdhYN8Uusc7XYz8LDAEQ-15" value="apakah menghitung nya selesai.??&lt;br&gt;y/Y" style="shape=parallelogram;perimeter=parallelogramPerimeter;whiteSpace=wrap;html=1;fixedSize=1;" vertex="1" parent="WIyWlLk6GJQsqaUBKTNV-1">
          <mxGeometry x="325" y="450" width="170" height="60" as="geometry" />
        </mxCell>
        <mxCell id="TdhYN8Uusc7XYz8LDAEQ-23" value="" style="edgeStyle=orthogonalEdgeStyle;rounded=0;orthogonalLoop=1;jettySize=auto;html=1;" edge="1" parent="WIyWlLk6GJQsqaUBKTNV-1" source="TdhYN8Uusc7XYz8LDAEQ-17" target="TdhYN8Uusc7XYz8LDAEQ-5">
          <mxGeometry relative="1" as="geometry" />
        </mxCell>
        <mxCell id="TdhYN8Uusc7XYz8LDAEQ-17" value="=y" style="rhombus;whiteSpace=wrap;html=1;" vertex="1" parent="WIyWlLk6GJQsqaUBKTNV-1">
          <mxGeometry x="217.5" y="440" width="80" height="80" as="geometry" />
        </mxCell>
        <mxCell id="TdhYN8Uusc7XYz8LDAEQ-21" value="" style="endArrow=classic;html=1;rounded=0;exitX=0.5;exitY=1;exitDx=0;exitDy=0;entryX=1;entryY=0.5;entryDx=0;entryDy=0;" edge="1" parent="WIyWlLk6GJQsqaUBKTNV-1" source="TdhYN8Uusc7XYz8LDAEQ-17" target="TdhYN8Uusc7XYz8LDAEQ-1">
          <mxGeometry width="50" height="50" relative="1" as="geometry">
            <mxPoint x="530" y="550" as="sourcePoint" />
            <mxPoint x="580" y="500" as="targetPoint" />
            <Array as="points">
              <mxPoint x="258" y="530" />
              <mxPoint x="720" y="530" />
              <mxPoint x="720" y="280" />
            </Array>
          </mxGeometry>
        </mxCell>
        <mxCell id="TdhYN8Uusc7XYz8LDAEQ-29" value="" style="edgeStyle=orthogonalEdgeStyle;rounded=0;orthogonalLoop=1;jettySize=auto;html=1;" edge="1" parent="WIyWlLk6GJQsqaUBKTNV-1" source="TdhYN8Uusc7XYz8LDAEQ-24" target="TdhYN8Uusc7XYz8LDAEQ-28">
          <mxGeometry relative="1" as="geometry" />
        </mxCell>
        <mxCell id="kiC5Af8_jNePT1e4FOUU-15" value="" style="edgeStyle=orthogonalEdgeStyle;rounded=0;orthogonalLoop=1;jettySize=auto;html=1;" edge="1" parent="WIyWlLk6GJQsqaUBKTNV-1" source="TdhYN8Uusc7XYz8LDAEQ-24" target="kiC5Af8_jNePT1e4FOUU-14">
          <mxGeometry relative="1" as="geometry" />
        </mxCell>
        <mxCell id="TdhYN8Uusc7XYz8LDAEQ-24" value="=2" style="rhombus;whiteSpace=wrap;html=1;" vertex="1" parent="WIyWlLk6GJQsqaUBKTNV-1">
          <mxGeometry x="75" y="560" width="80" height="80" as="geometry" />
        </mxCell>
        <mxCell id="TdhYN8Uusc7XYz8LDAEQ-32" value="" style="edgeStyle=orthogonalEdgeStyle;rounded=0;orthogonalLoop=1;jettySize=auto;html=1;" edge="1" parent="WIyWlLk6GJQsqaUBKTNV-1" source="TdhYN8Uusc7XYz8LDAEQ-28" target="TdhYN8Uusc7XYz8LDAEQ-31">
          <mxGeometry relative="1" as="geometry" />
        </mxCell>
        <mxCell id="TdhYN8Uusc7XYz8LDAEQ-28" value="print(1.melihat&lt;br&gt;2menambah&lt;br&gt;3.menghapus&lt;br&gt;4keluar)" style="shape=parallelogram;perimeter=parallelogramPerimeter;whiteSpace=wrap;html=1;fixedSize=1;" vertex="1" parent="WIyWlLk6GJQsqaUBKTNV-1">
          <mxGeometry x="215" y="570" width="120" height="60" as="geometry" />
        </mxCell>
        <mxCell id="TdhYN8Uusc7XYz8LDAEQ-34" value="" style="edgeStyle=orthogonalEdgeStyle;rounded=0;orthogonalLoop=1;jettySize=auto;html=1;" edge="1" parent="WIyWlLk6GJQsqaUBKTNV-1" source="TdhYN8Uusc7XYz8LDAEQ-31" target="TdhYN8Uusc7XYz8LDAEQ-33">
          <mxGeometry relative="1" as="geometry" />
        </mxCell>
        <mxCell id="TdhYN8Uusc7XYz8LDAEQ-37" value="" style="edgeStyle=orthogonalEdgeStyle;rounded=0;orthogonalLoop=1;jettySize=auto;html=1;" edge="1" parent="WIyWlLk6GJQsqaUBKTNV-1" source="TdhYN8Uusc7XYz8LDAEQ-31" target="TdhYN8Uusc7XYz8LDAEQ-36">
          <mxGeometry relative="1" as="geometry" />
        </mxCell>
        <mxCell id="TdhYN8Uusc7XYz8LDAEQ-31" value="=1" style="rhombus;whiteSpace=wrap;html=1;" vertex="1" parent="WIyWlLk6GJQsqaUBKTNV-1">
          <mxGeometry x="345" y="560" width="80" height="80" as="geometry" />
        </mxCell>
        <mxCell id="TdhYN8Uusc7XYz8LDAEQ-33" value="print(daftar harga)" style="shape=parallelogram;perimeter=parallelogramPerimeter;whiteSpace=wrap;html=1;fixedSize=1;" vertex="1" parent="WIyWlLk6GJQsqaUBKTNV-1">
          <mxGeometry x="450" y="570" width="120" height="60" as="geometry" />
        </mxCell>
        <mxCell id="TdhYN8Uusc7XYz8LDAEQ-35" value="" style="endArrow=classic;html=1;rounded=0;exitX=1;exitY=0.5;exitDx=0;exitDy=0;entryX=0.5;entryY=0;entryDx=0;entryDy=0;" edge="1" parent="WIyWlLk6GJQsqaUBKTNV-1" source="TdhYN8Uusc7XYz8LDAEQ-33" target="TdhYN8Uusc7XYz8LDAEQ-28">
          <mxGeometry width="50" height="50" relative="1" as="geometry">
            <mxPoint x="310" y="650" as="sourcePoint" />
            <mxPoint x="360" y="600" as="targetPoint" />
            <Array as="points">
              <mxPoint x="620" y="600" />
              <mxPoint x="620" y="550" />
              <mxPoint x="275" y="550" />
            </Array>
          </mxGeometry>
        </mxCell>
        <mxCell id="TdhYN8Uusc7XYz8LDAEQ-39" value="" style="edgeStyle=orthogonalEdgeStyle;rounded=0;orthogonalLoop=1;jettySize=auto;html=1;" edge="1" parent="WIyWlLk6GJQsqaUBKTNV-1" source="TdhYN8Uusc7XYz8LDAEQ-36" target="TdhYN8Uusc7XYz8LDAEQ-38">
          <mxGeometry relative="1" as="geometry" />
        </mxCell>
        <mxCell id="TdhYN8Uusc7XYz8LDAEQ-44" value="" style="edgeStyle=orthogonalEdgeStyle;rounded=0;orthogonalLoop=1;jettySize=auto;html=1;" edge="1" parent="WIyWlLk6GJQsqaUBKTNV-1" source="TdhYN8Uusc7XYz8LDAEQ-36" target="TdhYN8Uusc7XYz8LDAEQ-43">
          <mxGeometry relative="1" as="geometry" />
        </mxCell>
        <mxCell id="TdhYN8Uusc7XYz8LDAEQ-36" value="=2" style="rhombus;whiteSpace=wrap;html=1;" vertex="1" parent="WIyWlLk6GJQsqaUBKTNV-1">
          <mxGeometry x="345" y="670" width="80" height="80" as="geometry" />
        </mxCell>
        <mxCell id="TdhYN8Uusc7XYz8LDAEQ-41" value="" style="edgeStyle=orthogonalEdgeStyle;rounded=0;orthogonalLoop=1;jettySize=auto;html=1;" edge="1" parent="WIyWlLk6GJQsqaUBKTNV-1" source="TdhYN8Uusc7XYz8LDAEQ-38" target="TdhYN8Uusc7XYz8LDAEQ-40">
          <mxGeometry relative="1" as="geometry" />
        </mxCell>
        <mxCell id="TdhYN8Uusc7XYz8LDAEQ-38" value="masukan(nama, ukuran, harga.)" style="shape=parallelogram;perimeter=parallelogramPerimeter;whiteSpace=wrap;html=1;fixedSize=1;" vertex="1" parent="WIyWlLk6GJQsqaUBKTNV-1">
          <mxGeometry x="450" y="680" width="120" height="60" as="geometry" />
        </mxCell>
        <mxCell id="kiC5Af8_jNePT1e4FOUU-3" value="" style="edgeStyle=orthogonalEdgeStyle;rounded=0;orthogonalLoop=1;jettySize=auto;html=1;" edge="1" parent="WIyWlLk6GJQsqaUBKTNV-1" source="TdhYN8Uusc7XYz8LDAEQ-40" target="kiC5Af8_jNePT1e4FOUU-2">
          <mxGeometry relative="1" as="geometry" />
        </mxCell>
        <mxCell id="TdhYN8Uusc7XYz8LDAEQ-40" value="print(daftar baru)" style="shape=parallelogram;perimeter=parallelogramPerimeter;whiteSpace=wrap;html=1;fixedSize=1;" vertex="1" parent="WIyWlLk6GJQsqaUBKTNV-1">
          <mxGeometry x="610" y="680" width="120" height="60" as="geometry" />
        </mxCell>
        <mxCell id="TdhYN8Uusc7XYz8LDAEQ-46" value="" style="edgeStyle=orthogonalEdgeStyle;rounded=0;orthogonalLoop=1;jettySize=auto;html=1;" edge="1" parent="WIyWlLk6GJQsqaUBKTNV-1" source="TdhYN8Uusc7XYz8LDAEQ-43" target="TdhYN8Uusc7XYz8LDAEQ-45">
          <mxGeometry relative="1" as="geometry" />
        </mxCell>
        <mxCell id="TdhYN8Uusc7XYz8LDAEQ-43" value="=3" style="rhombus;whiteSpace=wrap;html=1;" vertex="1" parent="WIyWlLk6GJQsqaUBKTNV-1">
          <mxGeometry x="345" y="790" width="80" height="80" as="geometry" />
        </mxCell>
        <mxCell id="TdhYN8Uusc7XYz8LDAEQ-48" value="" style="edgeStyle=orthogonalEdgeStyle;rounded=0;orthogonalLoop=1;jettySize=auto;html=1;" edge="1" parent="WIyWlLk6GJQsqaUBKTNV-1" source="TdhYN8Uusc7XYz8LDAEQ-45" target="TdhYN8Uusc7XYz8LDAEQ-47">
          <mxGeometry relative="1" as="geometry" />
        </mxCell>
        <mxCell id="TdhYN8Uusc7XYz8LDAEQ-45" value="print(daftar harga)" style="shape=parallelogram;perimeter=parallelogramPerimeter;whiteSpace=wrap;html=1;fixedSize=1;" vertex="1" parent="WIyWlLk6GJQsqaUBKTNV-1">
          <mxGeometry x="450" y="800" width="120" height="60" as="geometry" />
        </mxCell>
        <mxCell id="TdhYN8Uusc7XYz8LDAEQ-50" value="" style="edgeStyle=orthogonalEdgeStyle;rounded=0;orthogonalLoop=1;jettySize=auto;html=1;" edge="1" parent="WIyWlLk6GJQsqaUBKTNV-1" source="TdhYN8Uusc7XYz8LDAEQ-47" target="TdhYN8Uusc7XYz8LDAEQ-49">
          <mxGeometry relative="1" as="geometry" />
        </mxCell>
        <mxCell id="TdhYN8Uusc7XYz8LDAEQ-47" value="pilih data yang mau di hapus" style="shape=parallelogram;perimeter=parallelogramPerimeter;whiteSpace=wrap;html=1;fixedSize=1;" vertex="1" parent="WIyWlLk6GJQsqaUBKTNV-1">
          <mxGeometry x="580" y="800" width="150" height="60" as="geometry" />
        </mxCell>
        <mxCell id="kiC5Af8_jNePT1e4FOUU-10" value="" style="edgeStyle=orthogonalEdgeStyle;rounded=0;orthogonalLoop=1;jettySize=auto;html=1;" edge="1" parent="WIyWlLk6GJQsqaUBKTNV-1" source="TdhYN8Uusc7XYz8LDAEQ-49" target="kiC5Af8_jNePT1e4FOUU-4">
          <mxGeometry relative="1" as="geometry" />
        </mxCell>
        <mxCell id="TdhYN8Uusc7XYz8LDAEQ-49" value="print(data baru )" style="shape=parallelogram;perimeter=parallelogramPerimeter;whiteSpace=wrap;html=1;fixedSize=1;" vertex="1" parent="WIyWlLk6GJQsqaUBKTNV-1">
          <mxGeometry x="740" y="800" width="150" height="60" as="geometry" />
        </mxCell>
        <mxCell id="kiC5Af8_jNePT1e4FOUU-0" value="" style="endArrow=classic;html=1;rounded=0;exitX=0.5;exitY=1;exitDx=0;exitDy=0;" edge="1" parent="WIyWlLk6GJQsqaUBKTNV-1" source="TdhYN8Uusc7XYz8LDAEQ-43">
          <mxGeometry width="50" height="50" relative="1" as="geometry">
            <mxPoint x="550" y="830" as="sourcePoint" />
            <mxPoint x="720" y="530" as="targetPoint" />
            <Array as="points">
              <mxPoint x="385" y="920" />
              <mxPoint x="1160" y="920" />
              <mxPoint x="1160" y="530" />
            </Array>
          </mxGeometry>
        </mxCell>
        <mxCell id="kiC5Af8_jNePT1e4FOUU-7" value="" style="edgeStyle=orthogonalEdgeStyle;rounded=0;orthogonalLoop=1;jettySize=auto;html=1;" edge="1" parent="WIyWlLk6GJQsqaUBKTNV-1" source="kiC5Af8_jNePT1e4FOUU-2" target="kiC5Af8_jNePT1e4FOUU-6">
          <mxGeometry relative="1" as="geometry" />
        </mxCell>
        <mxCell id="kiC5Af8_jNePT1e4FOUU-2" value="apakah menghitungnya selesai y/Y" style="shape=parallelogram;perimeter=parallelogramPerimeter;whiteSpace=wrap;html=1;fixedSize=1;" vertex="1" parent="WIyWlLk6GJQsqaUBKTNV-1">
          <mxGeometry x="760" y="680" width="120" height="60" as="geometry" />
        </mxCell>
        <mxCell id="kiC5Af8_jNePT1e4FOUU-9" value="" style="edgeStyle=orthogonalEdgeStyle;rounded=0;orthogonalLoop=1;jettySize=auto;html=1;" edge="1" parent="WIyWlLk6GJQsqaUBKTNV-1" source="kiC5Af8_jNePT1e4FOUU-4" target="kiC5Af8_jNePT1e4FOUU-8">
          <mxGeometry relative="1" as="geometry" />
        </mxCell>
        <mxCell id="kiC5Af8_jNePT1e4FOUU-4" value="apakah menghitungnya selesai y/Y" style="shape=parallelogram;perimeter=parallelogramPerimeter;whiteSpace=wrap;html=1;fixedSize=1;" vertex="1" parent="WIyWlLk6GJQsqaUBKTNV-1">
          <mxGeometry x="900" y="800" width="120" height="60" as="geometry" />
        </mxCell>
        <mxCell id="kiC5Af8_jNePT1e4FOUU-6" value="=y" style="rhombus;whiteSpace=wrap;html=1;" vertex="1" parent="WIyWlLk6GJQsqaUBKTNV-1">
          <mxGeometry x="910" y="670" width="80" height="80" as="geometry" />
        </mxCell>
        <mxCell id="kiC5Af8_jNePT1e4FOUU-8" value="=y" style="rhombus;whiteSpace=wrap;html=1;" vertex="1" parent="WIyWlLk6GJQsqaUBKTNV-1">
          <mxGeometry x="1040" y="790" width="80" height="80" as="geometry" />
        </mxCell>
        <mxCell id="kiC5Af8_jNePT1e4FOUU-11" value="" style="endArrow=classic;html=1;rounded=0;exitX=0.5;exitY=0;exitDx=0;exitDy=0;" edge="1" parent="WIyWlLk6GJQsqaUBKTNV-1" source="kiC5Af8_jNePT1e4FOUU-6">
          <mxGeometry width="50" height="50" relative="1" as="geometry">
            <mxPoint x="800" y="700" as="sourcePoint" />
            <mxPoint x="620" y="550" as="targetPoint" />
            <Array as="points">
              <mxPoint x="950" y="550" />
            </Array>
          </mxGeometry>
        </mxCell>
        <mxCell id="kiC5Af8_jNePT1e4FOUU-13" value="" style="endArrow=classic;html=1;rounded=0;exitX=0.5;exitY=0;exitDx=0;exitDy=0;" edge="1" parent="WIyWlLk6GJQsqaUBKTNV-1" source="kiC5Af8_jNePT1e4FOUU-8">
          <mxGeometry width="50" height="50" relative="1" as="geometry">
            <mxPoint x="800" y="620" as="sourcePoint" />
            <mxPoint x="950" y="550" as="targetPoint" />
            <Array as="points">
              <mxPoint x="1080" y="550" />
            </Array>
          </mxGeometry>
        </mxCell>
        <mxCell id="kiC5Af8_jNePT1e4FOUU-17" value="" style="edgeStyle=orthogonalEdgeStyle;rounded=0;orthogonalLoop=1;jettySize=auto;html=1;" edge="1" parent="WIyWlLk6GJQsqaUBKTNV-1" source="kiC5Af8_jNePT1e4FOUU-14" target="kiC5Af8_jNePT1e4FOUU-16">
          <mxGeometry relative="1" as="geometry" />
        </mxCell>
        <mxCell id="kiC5Af8_jNePT1e4FOUU-14" value="print(program selesai)" style="shape=parallelogram;perimeter=parallelogramPerimeter;whiteSpace=wrap;html=1;fixedSize=1;" vertex="1" parent="WIyWlLk6GJQsqaUBKTNV-1">
          <mxGeometry x="35" y="680" width="160" height="60" as="geometry" />
        </mxCell>
        <mxCell id="kiC5Af8_jNePT1e4FOUU-16" value="STOP" style="rounded=1;whiteSpace=wrap;html=1;" vertex="1" parent="WIyWlLk6GJQsqaUBKTNV-1">
          <mxGeometry x="55" y="800" width="120" height="60" as="geometry" />
        </mxCell>
        <mxCell id="kiC5Af8_jNePT1e4FOUU-18" value="" style="endArrow=classic;html=1;rounded=0;exitX=0.5;exitY=1;exitDx=0;exitDy=0;entryX=0.5;entryY=1;entryDx=0;entryDy=0;" edge="1" parent="WIyWlLk6GJQsqaUBKTNV-1" source="kiC5Af8_jNePT1e4FOUU-6" target="TdhYN8Uusc7XYz8LDAEQ-38">
          <mxGeometry width="50" height="50" relative="1" as="geometry">
            <mxPoint x="570" y="690" as="sourcePoint" />
            <mxPoint x="620" y="640" as="targetPoint" />
            <Array as="points">
              <mxPoint x="950" y="770" />
              <mxPoint x="510" y="770" />
            </Array>
          </mxGeometry>
        </mxCell>
        <mxCell id="kiC5Af8_jNePT1e4FOUU-19" value="" style="endArrow=classic;html=1;rounded=0;exitX=0.5;exitY=1;exitDx=0;exitDy=0;entryX=0.5;entryY=1;entryDx=0;entryDy=0;" edge="1" parent="WIyWlLk6GJQsqaUBKTNV-1" source="kiC5Af8_jNePT1e4FOUU-8" target="TdhYN8Uusc7XYz8LDAEQ-45">
          <mxGeometry width="50" height="50" relative="1" as="geometry">
            <mxPoint x="610" y="770" as="sourcePoint" />
            <mxPoint x="660" y="720" as="targetPoint" />
            <Array as="points">
              <mxPoint x="1080" y="890" />
              <mxPoint x="510" y="890" />
            </Array>
          </mxGeometry>
        </mxCell>
        <mxCell id="kiC5Af8_jNePT1e4FOUU-20" value="YA" style="text;html=1;strokeColor=none;fillColor=none;align=center;verticalAlign=middle;whiteSpace=wrap;rounded=0;" vertex="1" parent="WIyWlLk6GJQsqaUBKTNV-1">
          <mxGeometry x="130" y="360" width="60" height="30" as="geometry" />
        </mxCell>
        <mxCell id="kiC5Af8_jNePT1e4FOUU-22" value="TIDAK" style="text;html=1;strokeColor=none;fillColor=none;align=center;verticalAlign=middle;whiteSpace=wrap;rounded=0;" vertex="1" parent="WIyWlLk6GJQsqaUBKTNV-1">
          <mxGeometry x="110" y="410" width="60" height="30" as="geometry" />
        </mxCell>
        <mxCell id="kiC5Af8_jNePT1e4FOUU-24" value="YA" style="text;html=1;strokeColor=none;fillColor=none;align=center;verticalAlign=middle;whiteSpace=wrap;rounded=0;" vertex="1" parent="WIyWlLk6GJQsqaUBKTNV-1">
          <mxGeometry x="135" y="580" width="60" height="30" as="geometry" />
        </mxCell>
        <mxCell id="kiC5Af8_jNePT1e4FOUU-25" value="YA" style="text;html=1;strokeColor=none;fillColor=none;align=center;verticalAlign=middle;whiteSpace=wrap;rounded=0;" vertex="1" parent="WIyWlLk6GJQsqaUBKTNV-1">
          <mxGeometry x="245" y="510" width="60" height="30" as="geometry" />
        </mxCell>
        <mxCell id="kiC5Af8_jNePT1e4FOUU-27" value="TIDAK" style="text;html=1;strokeColor=none;fillColor=none;align=center;verticalAlign=middle;whiteSpace=wrap;rounded=0;" vertex="1" parent="WIyWlLk6GJQsqaUBKTNV-1">
          <mxGeometry x="245" y="420" width="60" height="30" as="geometry" />
        </mxCell>
        <mxCell id="kiC5Af8_jNePT1e4FOUU-28" value="TIDAK" style="text;html=1;strokeColor=none;fillColor=none;align=center;verticalAlign=middle;whiteSpace=wrap;rounded=0;" vertex="1" parent="WIyWlLk6GJQsqaUBKTNV-1">
          <mxGeometry x="110" y="640" width="60" height="30" as="geometry" />
        </mxCell>
        <mxCell id="kiC5Af8_jNePT1e4FOUU-33" value="YA" style="text;html=1;strokeColor=none;fillColor=none;align=center;verticalAlign=middle;whiteSpace=wrap;rounded=0;" vertex="1" parent="WIyWlLk6GJQsqaUBKTNV-1">
          <mxGeometry x="400" y="580" width="60" height="30" as="geometry" />
        </mxCell>
        <mxCell id="kiC5Af8_jNePT1e4FOUU-34" value="YA" style="text;html=1;strokeColor=none;fillColor=none;align=center;verticalAlign=middle;whiteSpace=wrap;rounded=0;" vertex="1" parent="WIyWlLk6GJQsqaUBKTNV-1">
          <mxGeometry x="400" y="690" width="60" height="30" as="geometry" />
        </mxCell>
        <mxCell id="kiC5Af8_jNePT1e4FOUU-35" value="YA" style="text;html=1;strokeColor=none;fillColor=none;align=center;verticalAlign=middle;whiteSpace=wrap;rounded=0;" vertex="1" parent="WIyWlLk6GJQsqaUBKTNV-1">
          <mxGeometry x="400" y="810" width="60" height="30" as="geometry" />
        </mxCell>
        <mxCell id="kiC5Af8_jNePT1e4FOUU-36" value="YA" style="text;html=1;strokeColor=none;fillColor=none;align=center;verticalAlign=middle;whiteSpace=wrap;rounded=0;" vertex="1" parent="WIyWlLk6GJQsqaUBKTNV-1">
          <mxGeometry x="1060" y="770" width="60" height="30" as="geometry" />
        </mxCell>
        <mxCell id="kiC5Af8_jNePT1e4FOUU-37" value="YA" style="text;html=1;strokeColor=none;fillColor=none;align=center;verticalAlign=middle;whiteSpace=wrap;rounded=0;" vertex="1" parent="WIyWlLk6GJQsqaUBKTNV-1">
          <mxGeometry x="930" y="650" width="60" height="30" as="geometry" />
        </mxCell>
        <mxCell id="kiC5Af8_jNePT1e4FOUU-38" value="TIDAK" style="text;html=1;strokeColor=none;fillColor=none;align=center;verticalAlign=middle;whiteSpace=wrap;rounded=0;" vertex="1" parent="WIyWlLk6GJQsqaUBKTNV-1">
          <mxGeometry x="380" y="630" width="60" height="30" as="geometry" />
        </mxCell>
        <mxCell id="kiC5Af8_jNePT1e4FOUU-39" value="TIDAK" style="text;html=1;strokeColor=none;fillColor=none;align=center;verticalAlign=middle;whiteSpace=wrap;rounded=0;" vertex="1" parent="WIyWlLk6GJQsqaUBKTNV-1">
          <mxGeometry x="380" y="870" width="60" height="30" as="geometry" />
        </mxCell>
        <mxCell id="kiC5Af8_jNePT1e4FOUU-40" value="TIDAK" style="text;html=1;strokeColor=none;fillColor=none;align=center;verticalAlign=middle;whiteSpace=wrap;rounded=0;" vertex="1" parent="WIyWlLk6GJQsqaUBKTNV-1">
          <mxGeometry x="380" y="740" width="60" height="30" as="geometry" />
        </mxCell>
        <mxCell id="kiC5Af8_jNePT1e4FOUU-41" value="TIDAK" style="text;html=1;strokeColor=none;fillColor=none;align=center;verticalAlign=middle;whiteSpace=wrap;rounded=0;" vertex="1" parent="WIyWlLk6GJQsqaUBKTNV-1">
          <mxGeometry x="1070" y="870" width="60" height="30" as="geometry" />
        </mxCell>
        <mxCell id="kiC5Af8_jNePT1e4FOUU-42" value="TIDAK" style="text;html=1;strokeColor=none;fillColor=none;align=center;verticalAlign=middle;whiteSpace=wrap;rounded=0;" vertex="1" parent="WIyWlLk6GJQsqaUBKTNV-1">
          <mxGeometry x="940" y="740" width="60" height="30" as="geometry" />
        </mxCell>
      </root>
    </mxGraphModel>
  </diagram>
</mxfile>
